<?xml version="1.0" encoding="UTF-8"?>
<svg xmlns="http://www.w3.org/2000/svg" xmlns:xlink="http://www.w3.org/1999/xlink" width="18px" height="18px" viewBox="0 0 18 18" version="1.1">
<g id="surface1">
<path style="fill:none;stroke-width:2;stroke-linecap:round;stroke-linejoin:round;stroke:rgb(0%,0%,0%);stroke-opacity:1;stroke-miterlimit:4;" d="M 5 62 C 5 59.791667 6.791667 58 9 58 L 56 58 C 58.208333 58 60 59.791667 60 62 " transform="matrix(0.28125,0,0,0.28125,0,0)"/>
<path style="fill:none;stroke-width:2;stroke-linecap:round;stroke-linejoin:round;stroke:rgb(0%,0%,0%);stroke-opacity:1;stroke-miterlimit:4;" d="M 6.916667 37.583333 L 3.222222 41.277778 " transform="matrix(0.28125,0,0,0.28125,0,0)"/>
<path style="fill:none;stroke-width:2;stroke-linecap:round;stroke-linejoin:round;stroke:rgb(0%,0%,0%);stroke-opacity:1;stroke-miterlimit:4;" d="M 3.222222 37.583333 L 6.916667 41.277778 " transform="matrix(0.28125,0,0,0.28125,0,0)"/>
<path style="fill:none;stroke-width:2;stroke-linecap:round;stroke-linejoin:round;stroke:rgb(0%,0%,0%);stroke-opacity:1;stroke-miterlimit:4;" d="M 37 16.319444 L 37 24.347222 " transform="matrix(0.28125,0,0,0.28125,0,0)"/>
<path style="fill:none;stroke-width:2;stroke-linecap:round;stroke-linejoin:round;stroke:rgb(0%,0%,0%);stroke-opacity:1;stroke-miterlimit:4;" d="M 27 24.416667 L 27 16.319444 " transform="matrix(0.28125,0,0,0.28125,0,0)"/>
<path style="fill:none;stroke-width:2;stroke-linecap:round;stroke-linejoin:round;stroke:rgb(0%,0%,0%);stroke-opacity:1;stroke-miterlimit:4;" d="M 14.208333 15.694444 C 14.180556 15.875 14.166667 16.041667 14.166667 16.222222 C 14.166667 18.236111 16.152778 19.861111 18.611111 19.861111 C 21.069444 19.861111 23.055556 18.236111 23.055556 16.222222 " transform="matrix(0.28125,0,0,0.28125,0,0)"/>
<path style="fill:none;stroke-width:2;stroke-linecap:round;stroke-linejoin:round;stroke:rgb(0%,0%,0%);stroke-opacity:1;stroke-miterlimit:4;" d="M 22.972222 57.583333 L 22.416667 48 L 14.583333 48 L 14.027778 57.583333 " transform="matrix(0.28125,0,0,0.28125,0,0)"/>
<path style="fill:none;stroke-width:2;stroke-linecap:round;stroke-linejoin:round;stroke:rgb(0%,0%,0%);stroke-opacity:1;stroke-miterlimit:4;" d="M 49.791667 15.708333 C 49.819444 15.875 49.833333 16.055556 49.833333 16.222222 C 49.833333 18.236111 47.847222 19.861111 45.388889 19.861111 C 42.930556 19.861111 40.944444 18.236111 40.944444 16.222222 " transform="matrix(0.28125,0,0,0.28125,0,0)"/>
<path style="fill:none;stroke-width:2;stroke-linecap:round;stroke-linejoin:round;stroke:rgb(0%,0%,0%);stroke-opacity:1;stroke-miterlimit:4;" d="M 54.527778 11.430556 L 54.527778 11.777778 C 54.569444 13.583333 53.194444 15.125 51.388889 15.291667 C 38.486111 16.222222 25.527778 16.236111 12.611111 15.319444 C 10.805556 15.152778 9.430556 13.625 9.472222 11.805556 L 9.472222 11.472222 " transform="matrix(0.28125,0,0,0.28125,0,0)"/>
<path style="fill:none;stroke-width:2;stroke-linecap:round;stroke-linejoin:round;stroke:rgb(0%,0%,0%);stroke-opacity:1;stroke-miterlimit:4;" d="M 9.472222 23.569444 C 9.472222 23.569444 33.791667 26.569444 54.527778 23.569444 L 54.527778 24.777778 C 54.569444 26.597222 53.194444 28.125 51.388889 28.291667 C 38.486111 29.222222 25.527778 29.236111 12.611111 28.333333 C 10.805556 28.166667 9.430556 26.625 9.472222 24.805556 Z M 9.472222 23.569444 " transform="matrix(0.28125,0,0,0.28125,0,0)"/>
<path style="fill:none;stroke-width:2;stroke-linecap:round;stroke-linejoin:round;stroke:rgb(0%,0%,0%);stroke-opacity:1;stroke-miterlimit:4;" d="M 4 5.5 C 4 5.5 34.222222 8.986111 60 5.5 L 60 6.888889 C 59.986111 9.069444 58.277778 10.861111 56.097222 10.986111 C 40.055556 12.083333 23.958333 12.097222 7.916667 11.027778 C 5.736111 10.902778 4.027778 9.111111 4 6.930556 Z M 4 5.5 " transform="matrix(0.28125,0,0,0.28125,0,0)"/>
<path style="fill:none;stroke-width:2;stroke-linecap:round;stroke-linejoin:round;stroke:rgb(0%,0%,0%);stroke-opacity:1;stroke-miterlimit:4;" d="M 41.027778 57.583333 L 41.583333 48 L 49.416667 48 L 49.972222 57.583333 " transform="matrix(0.28125,0,0,0.28125,0,0)"/>
<path style="fill:none;stroke-width:2;stroke-linecap:round;stroke-linejoin:round;stroke:rgb(0%,0%,0%);stroke-opacity:1;stroke-miterlimit:4;" d="M 32.041667 19 L 32.041667 20.652778 " transform="matrix(0.28125,0,0,0.28125,0,0)"/>
<path style=" stroke:none;fill-rule:nonzero;fill:rgb(0%,0%,0%);fill-opacity:1;" d="M 8.15625 9.5625 C 8.15625 9.40625 8.03125 9.28125 7.875 9.28125 C 7.71875 9.28125 7.59375 9.40625 7.59375 9.5625 C 7.59375 9.71875 7.71875 9.84375 7.875 9.84375 C 8.03125 9.84375 8.15625 9.71875 8.15625 9.5625 Z M 8.15625 9.5625 "/>
<path style=" stroke:none;fill-rule:nonzero;fill:rgb(0%,0%,0%);fill-opacity:1;" d="M 8.15625 10.6875 C 8.15625 10.53125 8.03125 10.40625 7.875 10.40625 C 7.71875 10.40625 7.59375 10.53125 7.59375 10.6875 C 7.59375 10.84375 7.71875 10.96875 7.875 10.96875 C 8.03125 10.96875 8.15625 10.84375 8.15625 10.6875 Z M 8.15625 10.6875 "/>
<path style=" stroke:none;fill-rule:nonzero;fill:rgb(0%,0%,0%);fill-opacity:1;" d="M 8.15625 11.8125 C 8.15625 11.65625 8.03125 11.53125 7.875 11.53125 C 7.71875 11.53125 7.59375 11.65625 7.59375 11.8125 C 7.59375 11.96875 7.71875 12.09375 7.875 12.09375 C 8.03125 12.09375 8.15625 11.96875 8.15625 11.8125 Z M 8.15625 11.8125 "/>
<path style=" stroke:none;fill-rule:nonzero;fill:rgb(0%,0%,0%);fill-opacity:1;" d="M 8.15625 12.9375 C 8.15625 12.78125 8.03125 12.65625 7.875 12.65625 C 7.71875 12.65625 7.59375 12.78125 7.59375 12.9375 C 7.59375 13.09375 7.71875 13.21875 7.875 13.21875 C 8.03125 13.21875 8.15625 13.09375 8.15625 12.9375 Z M 8.15625 12.9375 "/>
<path style=" stroke:none;fill-rule:nonzero;fill:rgb(0%,0%,0%);fill-opacity:1;" d="M 10.40625 9.5625 C 10.40625 9.40625 10.28125 9.28125 10.125 9.28125 C 9.96875 9.28125 9.84375 9.40625 9.84375 9.5625 C 9.84375 9.71875 9.96875 9.84375 10.125 9.84375 C 10.28125 9.84375 10.40625 9.71875 10.40625 9.5625 Z M 10.40625 9.5625 "/>
<path style=" stroke:none;fill-rule:nonzero;fill:rgb(0%,0%,0%);fill-opacity:1;" d="M 10.40625 10.6875 C 10.40625 10.53125 10.28125 10.40625 10.125 10.40625 C 9.96875 10.40625 9.84375 10.53125 9.84375 10.6875 C 9.84375 10.84375 9.96875 10.96875 10.125 10.96875 C 10.28125 10.96875 10.40625 10.84375 10.40625 10.6875 Z M 10.40625 10.6875 "/>
<path style=" stroke:none;fill-rule:nonzero;fill:rgb(0%,0%,0%);fill-opacity:1;" d="M 10.40625 11.8125 C 10.40625 11.65625 10.28125 11.53125 10.125 11.53125 C 9.96875 11.53125 9.84375 11.65625 9.84375 11.8125 C 9.84375 11.96875 9.96875 12.09375 10.125 12.09375 C 10.28125 12.09375 10.40625 11.96875 10.40625 11.8125 Z M 10.40625 11.8125 "/>
<path style=" stroke:none;fill-rule:nonzero;fill:rgb(0%,0%,0%);fill-opacity:1;" d="M 10.40625 12.9375 C 10.40625 12.78125 10.28125 12.65625 10.125 12.65625 C 9.96875 12.65625 9.84375 12.78125 9.84375 12.9375 C 9.84375 13.09375 9.96875 13.21875 10.125 13.21875 C 10.28125 13.21875 10.40625 13.09375 10.40625 12.9375 Z M 10.40625 12.9375 "/>
<path style="fill:none;stroke-width:2;stroke-linecap:round;stroke-linejoin:round;stroke:rgb(0%,0%,0%);stroke-opacity:1;stroke-miterlimit:4;" d="M 46 53 L 46 58 " transform="matrix(0.28125,0,0,0.28125,0,0)"/>
<path style="fill:none;stroke-width:2;stroke-linecap:round;stroke-linejoin:round;stroke:rgb(0%,0%,0%);stroke-opacity:1;stroke-miterlimit:4;" d="M 18 53 L 18 58 " transform="matrix(0.28125,0,0,0.28125,0,0)"/>
<path style="fill:none;stroke-width:2;stroke-linecap:butt;stroke-linejoin:round;stroke:rgb(0%,0%,0%);stroke-opacity:1;stroke-miterlimit:4;" d="M 16 48 L 16 29 " transform="matrix(0.28125,0,0,0.28125,0,0)"/>
<path style="fill:none;stroke-width:2;stroke-linecap:butt;stroke-linejoin:round;stroke:rgb(0%,0%,0%);stroke-opacity:1;stroke-miterlimit:4;" d="M 21 48 L 21 29 " transform="matrix(0.28125,0,0,0.28125,0,0)"/>
<path style="fill:none;stroke-width:2;stroke-linecap:butt;stroke-linejoin:round;stroke:rgb(0%,0%,0%);stroke-opacity:1;stroke-miterlimit:4;" d="M 16 24 L 16 19 " transform="matrix(0.28125,0,0,0.28125,0,0)"/>
<path style="fill:none;stroke-width:2;stroke-linecap:butt;stroke-linejoin:round;stroke:rgb(0%,0%,0%);stroke-opacity:1;stroke-miterlimit:4;" d="M 21 24 L 21 19 " transform="matrix(0.28125,0,0,0.28125,0,0)"/>
<path style="fill:none;stroke-width:2;stroke-linecap:butt;stroke-linejoin:round;stroke:rgb(0%,0%,0%);stroke-opacity:1;stroke-miterlimit:4;" d="M 43 48 L 43 29 " transform="matrix(0.28125,0,0,0.28125,0,0)"/>
<path style="fill:none;stroke-width:2;stroke-linecap:butt;stroke-linejoin:round;stroke:rgb(0%,0%,0%);stroke-opacity:1;stroke-miterlimit:4;" d="M 48 48 L 48 29 " transform="matrix(0.28125,0,0,0.28125,0,0)"/>
<path style="fill:none;stroke-width:2;stroke-linecap:butt;stroke-linejoin:round;stroke:rgb(0%,0%,0%);stroke-opacity:1;stroke-miterlimit:4;" d="M 43 24 L 43 19 " transform="matrix(0.28125,0,0,0.28125,0,0)"/>
<path style="fill:none;stroke-width:2;stroke-linecap:butt;stroke-linejoin:round;stroke:rgb(0%,0%,0%);stroke-opacity:1;stroke-miterlimit:4;" d="M 48 24 L 48 19 " transform="matrix(0.28125,0,0,0.28125,0,0)"/>
</g>
</svg>
