<?xml version="1.0" encoding="UTF-8"?>
<svg xmlns="http://www.w3.org/2000/svg" xmlns:xlink="http://www.w3.org/1999/xlink" width="18px" height="18px" viewBox="0 0 18 18" version="1.1">
<g id="surface1">
<path style=" stroke:none;fill-rule:nonzero;fill:rgb(0%,0%,0%);fill-opacity:1;" d="M 3.070312 9.449219 L 5.558594 10.84375 L 6.394531 10.574219 L 2.777344 8.546875 Z M 3.070312 9.449219 "/>
<path style=" stroke:none;fill-rule:nonzero;fill:rgb(0%,0%,0%);fill-opacity:1;" d="M 14.675781 11.308594 L 14.675781 11.785156 L 12.675781 11.785156 L 10.21875 9.328125 L 15.03125 7.773438 C 15.140625 7.738281 15.234375 7.660156 15.289062 7.554688 C 15.34375 7.449219 15.351562 7.328125 15.316406 7.214844 L 14.378906 4.316406 C 14.300781 4.082031 14.050781 3.953125 13.816406 4.027344 L 2.925781 7.554688 C 2.78125 7.601562 2.667969 7.71875 2.628906 7.867188 L 7.066406 10.367188 L 9.109375 9.703125 L 12.25 12.835938 L 14.675781 12.835938 L 14.675781 13.164062 C 14.671875 13.574219 14.964844 13.925781 15.371094 14 L 15.371094 10.476562 C 14.96875 10.550781 14.675781 10.898438 14.675781 11.308594 Z M 10.089844 6.136719 C 10.046875 6 10.089844 5.863281 10.167969 5.835938 L 13.324219 4.816406 C 13.414062 4.789062 13.515625 4.878906 13.574219 5.011719 C 13.632812 5.148438 13.574219 5.285156 13.496094 5.3125 L 10.328125 6.332031 C 10.25 6.363281 10.136719 6.273438 10.089844 6.136719 Z M 10.089844 6.136719 "/>
</g>
</svg>
